#N canvas 185 22 1038 716 10;
#X obj -105 572 soundfiler;
#N canvas 184 182 450 278 (subpatch) 0;
#X array VALUES1 92610 float 2;
#X coords 0 1 92610 -1 200 140 1 0 0;
#X restore 322 -25 graph;
#X obj 123 163 until;
#X obj 123 187 counter;
#X obj 123 142 t f b;
#X obj 136 -62 loadbang;
#X obj 123 208 t f b f;
#X msg 153 23 \; pd dsp 1;
#X obj 123 72 del 100;
#X obj -230 551 del 10000;
#X msg -168 551 END;
#X obj -213 522 bng 15 250 50 0 empty empty empty 17 7 0 10 -262144
-1 -1;
#N canvas 0 22 450 278 (subpatch) 0;
#X array VALUES2 92610 float 2;
#X coords 0 1 92610 -1 200 140 1;
#X restore 554 -25 graph;
#X obj 123 413 tabwrite VALUES1;
#X obj -168 576 print;
#X msg -230 581 \; pd quit;
#X obj 303 418 tabwrite VALUES2;
#X obj 19 600 soundfiler;
#X obj 123 297 f;
#X obj 123 367 * 0.1;
#X obj 123 390 - 1;
#X msg -105 539 write -wave -bytes 2 -rate 44100 ./bla-stereo.wav VALUES1
VALUES2;
#X msg 19 579 write -wave -bytes 2 -rate 44100 ./bla-mono.wav VALUES1
;
#X obj 224 52 s SAMPCOUNT;
#X msg 224 20 92610;
#X obj -70 350 r SAMPCOUNT;
#X obj 138 94 r SAMPCOUNT;
#X obj 123 118 f;
#X obj 136 -13 t b b;
#X obj -97 390 moses;
#X obj 136 -37 bng 15 250 50 0 empty empty empty 17 7 0 10 -262144
-1 -1;
#X obj 123 318 / 4410;
#X obj 123 343 expr floor($f1 \, 0);
#X obj 302 303 f;
#X obj 302 324 / 4410;
#X obj 302 349 expr floor($f1 \, 0);
#X obj 302 373 * -0.1;
#X obj 302 394 + 1;
#X obj -68 370 - 1;
#X connect 2 0 3 0;
#X connect 3 0 6 0;
#X connect 4 0 2 0;
#X connect 4 1 3 2;
#X connect 5 0 30 0;
#X connect 6 0 29 0;
#X connect 6 1 18 0;
#X connect 6 1 33 0;
#X connect 6 2 13 1;
#X connect 6 2 16 1;
#X connect 6 2 18 1;
#X connect 6 2 33 1;
#X connect 8 0 27 0;
#X connect 9 0 15 0;
#X connect 10 0 14 0;
#X connect 11 0 9 0;
#X connect 18 0 31 0;
#X connect 19 0 20 0;
#X connect 20 0 13 0;
#X connect 21 0 0 0;
#X connect 22 0 17 0;
#X connect 24 0 23 0;
#X connect 25 0 38 0;
#X connect 26 0 27 1;
#X connect 27 0 4 0;
#X connect 28 0 8 0;
#X connect 28 0 7 0;
#X connect 28 1 24 0;
#X connect 29 1 21 0;
#X connect 29 1 10 0;
#X connect 29 1 11 0;
#X connect 29 1 22 0;
#X connect 30 0 28 0;
#X connect 31 0 32 0;
#X connect 32 0 19 0;
#X connect 33 0 34 0;
#X connect 34 0 35 0;
#X connect 35 0 36 0;
#X connect 36 0 37 0;
#X connect 37 0 16 0;
#X connect 38 0 29 1;
