#N canvas 388 212 1038 837 10;
#X obj 15 559 soundfiler;
#N canvas 0 22 450 278 (subpatch) 0;
#X array VALUES1 32 float 2;
#X coords 0 1 32 -1 200 140 1 0 0;
#X restore 346 30 graph;
#X obj 123 163 until;
#X obj 123 187 counter;
#X obj 123 142 t f b;
#X obj 117 320 random 100;
#X obj 117 340 / 50;
#X obj 117 362 - 1;
#X msg 123 120 32;
#X obj 123 8 loadbang;
#X obj 123 208 t f b f;
#X msg 176 118 \; pd dsp 1;
#X obj 123 72 del 100;
#X obj 17 448 del 10000;
#X msg 79 448 END;
#X obj 23 377 moses 31;
#X obj 34 419 bng 15 250 50 0 empty empty empty 17 7 0 10 -262144 -1
-1;
#N canvas 0 22 450 278 (subpatch) 0;
#X array VALUES2 32 float 2;
#X coords 0 1 31 -1 200 140 1;
#X restore 578 30 graph;
#X obj 117 385 tabwrite VALUES1;
#X obj 129 405 print VAL1;
#X obj 79 473 print;
#X msg 17 478 \; pd quit;
#X obj 249 320 random 100;
#X obj 249 340 / 50;
#X obj 249 362 - 1;
#X obj 249 385 tabwrite VALUES2;
#X obj 261 405 print VAL2;
#X obj 89 581 soundfiler;
#X msg 15 526 write -wave -bytes 2 -rate 44100 ./noise32values-stereo.wav
VALUES1 VALUES2;
#X msg 89 562 write -wave -bytes 2 -rate 44100 ./noise32values-mono.wav
VALUES1;
#X connect 2 0 3 0;
#X connect 3 0 10 0;
#X connect 4 0 2 0;
#X connect 4 1 3 2;
#X connect 5 0 6 0;
#X connect 6 0 7 0;
#X connect 7 0 18 0;
#X connect 7 0 19 0;
#X connect 8 0 4 0;
#X connect 9 0 11 0;
#X connect 9 0 12 0;
#X connect 10 0 15 0;
#X connect 10 1 5 0;
#X connect 10 1 22 0;
#X connect 10 2 18 1;
#X connect 10 2 25 1;
#X connect 12 0 8 0;
#X connect 13 0 21 0;
#X connect 14 0 20 0;
#X connect 15 1 28 0;
#X connect 15 1 14 0;
#X connect 15 1 16 0;
#X connect 15 1 29 0;
#X connect 16 0 13 0;
#X connect 22 0 23 0;
#X connect 23 0 24 0;
#X connect 24 0 25 0;
#X connect 24 0 26 0;
#X connect 28 0 0 0;
#X connect 29 0 27 0;
