#N canvas 699 270 580 418 10;
#X obj 110 276 sig~;
#X obj 170 326 writesf~;
#X msg 170 275 open ./steps.wav;
#X msg 281 275 start;
#X msg 325 275 stop;
#X obj 110 185 counter;
#X obj 110 153 metro 100;
#X obj 195 9 loadbang;
#X obj 206 116 del 100;
#X obj 110 214 * 0.1;
#X obj 196 36 bng 15 250 50 0 empty empty empty 17 7 0 10 -262144 -1
-1;
#X obj 313 229 bng 15 250 50 0 empty empty empty 17 7 0 10 -262144
-1 -1;
#X msg 294 108 \; pd dsp 1;
#X obj 196 77 t b b;
#X obj 379 274 del 10000;
#X msg 378 313 \; pd quit;
#X obj 110 246 - 1;
#X obj 275 181 del 2100;
#X connect 0 0 1 0;
#X connect 2 0 1 0;
#X connect 3 0 1 0;
#X connect 4 0 1 0;
#X connect 5 0 9 0;
#X connect 6 0 5 0;
#X connect 7 0 10 0;
#X connect 8 0 3 0;
#X connect 8 0 6 0;
#X connect 8 0 17 0;
#X connect 9 0 16 0;
#X connect 10 0 13 0;
#X connect 11 0 4 0;
#X connect 11 0 14 0;
#X connect 13 0 8 0;
#X connect 13 0 2 0;
#X connect 13 0 5 2;
#X connect 13 1 12 0;
#X connect 14 0 15 0;
#X connect 16 0 0 0;
#X connect 17 0 11 0;
